<?xml version="1.0" encoding="UTF-8"?><svg id="a" xmlns="http://www.w3.org/2000/svg" viewBox="0 0 120 120"><g id="f"><path d="m60.06,28.7H6.88c0-3.45,2.8-6.25,6.26-6.25h9.39v-3.13c0-2.59,2.1-4.7,4.69-4.7h12.52c2.59,0,4.69,2.1,4.69,4.7v3.13h9.38c3.45,0,6.26,2.8,6.26,6.25ZM13.14,105.34h40.67c3.45,0,6.26-2.8,6.26-6.25H6.88c0,3.46,2.8,6.25,6.26,6.25ZM101.16,39.65v13.25c0,1.5-.72,2.91-1.93,3.79l-8.65,9.83c-4.27,4.85-6.62,11.09-6.62,17.56v4.05c0,2.59-2.1,4.69-4.69,4.69H10.19v-57.87h86.28c2.59,0,4.69,2.1,4.69,4.69Z" fill="none" stroke="#fff" stroke-miterlimit="10" stroke-width="3"/><path d="m61.48,39.65h1.56c.86,0,1.57.7,1.57,1.57v3.13c0,.86-.7,1.56-1.56,1.56h-1.56c-.86,0-1.56-.7-1.56-1.56v-3.13c0-.86.7-1.57,1.57-1.57Z" fill="#fff"/><path d="m46.28,39.65h1.56c.86,0,1.57.7,1.57,1.57v3.13c0,.86-.7,1.56-1.56,1.56h-1.56c-.86,0-1.56-.7-1.56-1.56v-3.13c0-.86.7-1.57,1.57-1.57Z" fill="#fff"/><path d="m38.68,39.65h1.56c.86,0,1.57.7,1.57,1.57v3.13c0,.86-.7,1.56-1.56,1.56h-1.56c-.86,0-1.56-.7-1.56-1.56v-3.13c0-.86.7-1.57,1.57-1.57Z" fill="#fff"/><path d="m31.08,39.65h1.56c.86,0,1.57.7,1.57,1.57v3.13c0,.86-.7,1.56-1.56,1.56h-1.56c-.86,0-1.56-.7-1.56-1.56v-3.13c0-.86.7-1.57,1.57-1.57Z" fill="#fff"/><path d="m23.48,39.65h1.56c.86,0,1.57.7,1.57,1.57v3.13c0,.86-.7,1.56-1.56,1.56h-1.56c-.86,0-1.56-.7-1.56-1.56v-3.13c0-.86.7-1.57,1.57-1.57Z" fill="#fff"/><path d="m15.88,39.65h1.56c.86,0,1.57.7,1.57,1.57v3.13c0,.86-.7,1.56-1.56,1.56h-1.56c-.86,0-1.56-.7-1.56-1.56v-3.13c0-.86.7-1.57,1.57-1.57Z" fill="#fff"/><path d="m84.28,39.65h1.56c.86,0,1.57.7,1.57,1.57v3.13c0,.86-.7,1.56-1.56,1.56h-1.56c-.86,0-1.56-.7-1.56-1.56v-3.13c0-.86.7-1.57,1.57-1.57Z" fill="#fff"/><path d="m76.68,39.65h1.56c.86,0,1.57.7,1.57,1.57v3.13c0,.86-.7,1.56-1.56,1.56h-1.56c-.86,0-1.56-.7-1.56-1.56v-3.13c0-.86.7-1.57,1.57-1.57Z" fill="#fff"/><path d="m53.88,39.65h1.56c.86,0,1.57.7,1.57,1.57v3.13c0,.86-.7,1.56-1.56,1.56h-1.56c-.86,0-1.56-.7-1.56-1.56v-3.13c0-.86.7-1.57,1.57-1.57Z" fill="#fff"/><path d="m91.88,39.65h1.56c.86,0,1.57.7,1.57,1.57v3.13c0,.86-.7,1.56-1.56,1.56h-1.56c-.86,0-1.56-.7-1.56-1.56v-3.13c0-.86.7-1.57,1.57-1.57Z" fill="#fff"/><path d="m69.08,39.65h1.56c.86,0,1.57.7,1.57,1.57v3.13c0,.86-.7,1.56-1.56,1.56h-1.56c-.86,0-1.56-.7-1.56-1.56v-3.13c0-.86.7-1.57,1.57-1.57Z" fill="#fff"/><path d="m61.48,81.65h1.56c.86,0,1.57.7,1.57,1.57v3.13c0,.86-.7,1.56-1.56,1.56h-1.57c-.86,0-1.56-.7-1.56-1.56v-3.13c0-.86.7-1.57,1.57-1.57Z" fill="#fff"/><path d="m46.28,81.65h1.56c.86,0,1.57.7,1.57,1.57v3.13c0,.86-.7,1.56-1.56,1.56h-1.57c-.86,0-1.56-.7-1.56-1.56v-3.13c0-.86.7-1.57,1.57-1.57Z" fill="#fff"/><path d="m38.68,81.65h1.56c.86,0,1.57.7,1.57,1.57v3.13c0,.86-.7,1.56-1.56,1.56h-1.57c-.86,0-1.56-.7-1.56-1.56v-3.13c0-.86.7-1.57,1.57-1.57Z" fill="#fff"/><path d="m31.08,81.65h1.56c.86,0,1.57.7,1.57,1.57v3.13c0,.86-.7,1.56-1.56,1.56h-1.57c-.86,0-1.56-.7-1.56-1.56v-3.13c0-.86.7-1.57,1.57-1.57Z" fill="#fff"/><path d="m23.48,81.65h1.56c.86,0,1.57.7,1.57,1.57v3.13c0,.86-.7,1.56-1.56,1.56h-1.57c-.86,0-1.56-.7-1.56-1.56v-3.13c0-.86.7-1.57,1.57-1.57Z" fill="#fff"/><path d="m15.88,81.65h1.56c.86,0,1.57.7,1.57,1.57v3.13c0,.86-.7,1.56-1.56,1.56h-1.57c-.86,0-1.56-.7-1.56-1.56v-3.13c0-.86.7-1.57,1.57-1.57Z" fill="#fff"/><path d="m76.68,81.65h1.56c.86,0,1.57.7,1.57,1.57v3.13c0,.86-.7,1.56-1.56,1.56h-1.57c-.86,0-1.56-.7-1.56-1.56v-3.13c0-.86.7-1.57,1.57-1.57Z" fill="#fff"/><path d="m53.88,81.65h1.56c.86,0,1.57.7,1.57,1.57v3.13c0,.86-.7,1.56-1.56,1.56h-1.57c-.86,0-1.56-.7-1.56-1.56v-3.13c0-.86.7-1.57,1.57-1.57Z" fill="#fff"/><path d="m69.08,81.65h1.56c.86,0,1.57.7,1.57,1.57v3.13c0,.86-.7,1.56-1.56,1.56h-1.57c-.86,0-1.56-.7-1.56-1.56v-3.13c0-.86.7-1.57,1.57-1.57Z" fill="#fff"/><path d="m27.44,52.13v22.68h-4.93v-22.68h4.93Z" fill="#fff"/><path d="m39.79,51.73c1.46,0,2.76.14,3.89.43,1.13.29,2.14.66,3.02,1.12l-1.12,3.67c-.98-.48-1.93-.85-2.84-1.1s-1.8-.38-2.66-.38c-1.15,0-2.05.23-2.68.68-.64.46-.95,1.07-.95,1.84s.28,1.39.83,1.8c.55.41,1.44.8,2.66,1.19l2.16.68c1.8.6,3.21,1.45,4.23,2.56,1.02,1.1,1.53,2.46,1.53,4.07,0,.96-.18,1.86-.54,2.7-.36.84-.9,1.57-1.62,2.2-.72.62-1.62,1.12-2.7,1.48-1.08.36-2.34.54-3.78.54-2.71,0-5.2-.55-7.45-1.66l1.12-3.67c1.03.5,2.04.89,3.02,1.17.98.28,2.02.41,3.1.41,1.27,0,2.23-.23,2.88-.7.65-.47.97-1.12.97-1.96,0-.29-.05-.57-.16-.85s-.31-.54-.59-.79c-.29-.25-.68-.5-1.17-.76-.49-.25-1.13-.5-1.93-.74l-1.91-.65c-.84-.29-1.61-.62-2.3-1.01-.7-.38-1.29-.83-1.78-1.33-.49-.5-.88-1.1-1.15-1.78-.28-.68-.41-1.48-.41-2.39,0-.98.18-1.89.54-2.72.36-.83.89-1.54,1.6-2.14.71-.6,1.58-1.07,2.63-1.4s2.24-.5,3.58-.5Z" fill="#fff"/><path d="m62,51.73c1.61,0,3.1.26,4.46.79,1.37.53,2.54,1.29,3.53,2.29.98,1,1.76,2.23,2.32,3.69.56,1.46.85,3.13.85,5s-.29,3.46-.86,4.9c-.58,1.44-1.37,2.66-2.38,3.67-1.01,1.01-2.2,1.78-3.58,2.32-1.38.54-2.87.81-4.48.81s-3.1-.26-4.46-.77c-1.37-.52-2.54-1.27-3.53-2.27-.98-1-1.76-2.22-2.32-3.67-.56-1.45-.85-3.11-.85-4.99s.29-3.46.86-4.91c.58-1.45,1.37-2.69,2.38-3.71,1.01-1.02,2.2-1.8,3.58-2.34,1.38-.54,2.87-.81,4.48-.81Zm-6.08,11.77c0,1.34.16,2.51.49,3.51.32,1,.76,1.82,1.31,2.48.55.66,1.19,1.15,1.93,1.48.73.32,1.52.49,2.36.49s1.59-.16,2.32-.49c.73-.32,1.36-.82,1.89-1.48.53-.66.95-1.49,1.26-2.48.31-1,.47-2.17.47-3.51s-.16-2.59-.49-3.6c-.32-1.01-.76-1.84-1.31-2.5s-1.19-1.15-1.93-1.46c-.73-.31-1.52-.47-2.36-.47s-1.62.17-2.34.5c-.72.34-1.34.83-1.87,1.49-.53.66-.95,1.49-1.26,2.5-.31,1.01-.47,2.18-.47,3.53Z" fill="#fff"/></g></svg>