<?xml version="1.0" encoding="UTF-8"?><svg id="a" xmlns="http://www.w3.org/2000/svg" viewBox="0 0 120 120"><g id="h"><path d="m63.38,45.01h0l42.17-12.1c-9.25-15.51-26.18-25.91-45.55-25.91-.17,0-.33.01-.5.01l-10.61,41.88,14.49-3.88Z" fill="none" stroke="#fff" stroke-miterlimit="10" stroke-width="3"/><path d="m48.89,48.89L59.5,7.01c-19.34.18-36.19,10.72-45.3,26.33l30.81,30.04,3.88-14.49Z" fill="none" stroke="#fff" stroke-miterlimit="10" stroke-width="3"/><path d="m70.11,70.11l-10.61,42.88c.17,0,.33.01.5.01,19.68,0,36.84-10.74,45.98-26.66l-32-30.72-3.88,14.49Z" fill="none" stroke="#fff" stroke-miterlimit="10" stroke-width="3"/><path d="m45.01,63.38h0l-30.81-30.04c-4.57,7.83-7.2,16.93-7.2,26.66s2.46,18.24,6.77,25.9l41.85-11.92-10.61-10.61Z" fill="none" stroke="#fff" stroke-miterlimit="10" stroke-width="3"/><path d="m105.55,32.91l-42.17,12.1,10.61,10.61h0l32,30.72c4.45-7.76,7.02-16.75,7.02-26.34s-2.72-19.16-7.45-27.09Z" fill="none" stroke="#fff" stroke-miterlimit="10" stroke-width="3"/><path d="m55.62,73.99h0l-41.85,11.92c9,16.03,26.09,26.9,45.73,27.08l10.61-42.88-14.49,3.88Z" fill="none" stroke="#fff" stroke-miterlimit="10" stroke-width="3"/><polyline points="63.38 45.01 63.38 45.01 48.89 48.89" fill="none" stroke="#fff" stroke-miterlimit="10" stroke-width="3"/><line x1="70.11" y1="70.11" x2="73.99" y2="55.62" fill="none" stroke="#fff" stroke-miterlimit="10" stroke-width="3"/></g></svg>