<?xml version="1.0" encoding="UTF-8"?><svg id="a" xmlns="http://www.w3.org/2000/svg" viewBox="0 0 120 120"><g id="e"><path d="m78.25,61.65c0,9.54-7.75,17.29-17.29,17.29s-17.29-7.75-17.29-17.29,7.75-17.29,17.29-17.29,17.29,7.74,17.29,17.29Zm30.43-21.44v41.49c0,5.35-4.33,9.68-9.68,9.68H22.92c-5.35,0-9.68-4.33-9.68-9.68v-41.49c0-5.35,4.33-9.68,9.68-9.68h2.02c.47,0,.9-.23,1.16-.62l1.54-2.3c.51-.78,1.37-1.23,2.3-1.23h5.34c.93,0,1.78.46,2.3,1.23l1.54,2.3c.26.39.69.62,1.16.62h58.73c5.35,0,9.68,4.33,9.68,9.68Zm-26.28,21.44c0-11.84-9.6-21.44-21.44-21.44s-21.44,9.6-21.44,21.44,9.6,21.44,21.44,21.44,21.44-9.6,21.44-21.44Zm19.36-21.44c0-1.52-1.24-2.77-2.77-2.77h-9.68c-1.52,0-2.77,1.25-2.77,2.77v4.15c0,1.52,1.25,2.76,2.77,2.76h9.68c1.52,0,2.77-1.24,2.77-2.76v-4.15Zm-40.8,4.15c-9.54,0-17.29,7.74-17.29,17.29s7.75,17.29,17.29,17.29,17.29-7.75,17.29-17.29-7.75-17.29-17.29-17.29Zm0,0c-9.54,0-17.29,7.74-17.29,17.29s7.75,17.29,17.29,17.29,17.29-7.75,17.29-17.29-7.75-17.29-17.29-17.29Z" fill="none" stroke="#fff" stroke-miterlimit="10" stroke-width="3"/></g></svg>