<?xml version="1.0" encoding="UTF-8"?><svg id="a" xmlns="http://www.w3.org/2000/svg" viewBox="0 0 120 120"><g id="b"><rect x="25.5" y="27.5" width="69" height="70" fill="none" stroke="#fff" stroke-linecap="round" stroke-linejoin="round" stroke-width="3"/><path d="m30,27.5c0-3.31,13.43-6,30-6s30,2.69,30,6" fill="none" stroke="#fff" stroke-linecap="round" stroke-linejoin="round" stroke-width="3"/><rect x="20.5" y="33.5" width="79" height="28" fill="none" stroke="#fff" stroke-linecap="round" stroke-linejoin="round" stroke-width="3"/><rect x="20.5" y="68.5" width="79" height="16" fill="none" stroke="#fff" stroke-linecap="round" stroke-linejoin="round" stroke-width="3"/><rect x="35" y="97.5" width="50" height="5" fill="none" stroke="#fff" stroke-linecap="round" stroke-linejoin="round" stroke-width="3"/><line x1="30" y1="33.5" x2="30" y2="61.5" fill="none" stroke="#fff" stroke-linecap="round" stroke-linejoin="round" stroke-width="3"/><line x1="40" y1="33.5" x2="40" y2="61.5" fill="none" stroke="#fff" stroke-linecap="round" stroke-linejoin="round" stroke-width="3"/><line x1="50" y1="33.5" x2="50" y2="61.5" fill="none" stroke="#fff" stroke-linecap="round" stroke-linejoin="round" stroke-width="3"/><line x1="60" y1="33.5" x2="60" y2="61.5" fill="none" stroke="#fff" stroke-linecap="round" stroke-linejoin="round" stroke-width="3"/><line x1="70" y1="33.5" x2="70" y2="61.5" fill="none" stroke="#fff" stroke-linecap="round" stroke-linejoin="round" stroke-width="3"/><line x1="80" y1="33.5" x2="80" y2="61.5" fill="none" stroke="#fff" stroke-linecap="round" stroke-linejoin="round" stroke-width="3"/><line x1="90" y1="33.5" x2="90" y2="61.5" fill="none" stroke="#fff" stroke-linecap="round" stroke-linejoin="round" stroke-width="3"/><line x1="31.5" y1="68.5" x2="31.5" y2="84.5" fill="none" stroke="#fff" stroke-linecap="round" stroke-linejoin="round" stroke-width="3"/><line x1="38.5" y1="68.5" x2="38.5" y2="84.5" fill="none" stroke="#fff" stroke-linecap="round" stroke-linejoin="round" stroke-width="3"/><line x1="45.5" y1="68.5" x2="45.5" y2="84.5" fill="none" stroke="#fff" stroke-linecap="round" stroke-linejoin="round" stroke-width="3"/><line x1="52.5" y1="68.5" x2="52.5" y2="84.5" fill="none" stroke="#fff" stroke-linecap="round" stroke-linejoin="round" stroke-width="3"/><line x1="59.5" y1="68.5" x2="59.5" y2="84.5" fill="none" stroke="#fff" stroke-linecap="round" stroke-linejoin="round" stroke-width="3"/><line x1="66.5" y1="68.5" x2="66.5" y2="84.5" fill="none" stroke="#fff" stroke-linecap="round" stroke-linejoin="round" stroke-width="3"/><line x1="73.5" y1="68.5" x2="73.5" y2="84.5" fill="none" stroke="#fff" stroke-linecap="round" stroke-linejoin="round" stroke-width="3"/><line x1="80.5" y1="68.5" x2="80.5" y2="84.5" fill="none" stroke="#fff" stroke-linecap="round" stroke-linejoin="round" stroke-width="3"/><line x1="87.5" y1="68.5" x2="87.5" y2="84.5" fill="none" stroke="#fff" stroke-linecap="round" stroke-linejoin="round" stroke-width="3"/><path d="m25.5,61.25v7h69v-7H25.5Zm24.5,6h-20v-5h20v5Z" fill="#fff"/><path d="m26,83.75v15h69v-15H26Zm7,12.5h-3v-10h3v10Z" fill="#fff"/><rect x="26" y="28" width="68" height="5" fill="#fff"/></g></svg>