<?xml version="1.0" encoding="UTF-8"?><svg id="a" xmlns="http://www.w3.org/2000/svg" viewBox="0 0 120 120"><g id="j"><path d="m80.53,62.18c0,11.35-9.22,20.57-20.57,20.57s-20.58-9.22-20.58-20.57,9.22-20.57,20.58-20.57,20.57,9.21,20.57,20.57Zm36.21-25.51v49.38c0,6.37-5.15,11.52-11.52,11.52H14.69c-6.37,0-11.52-5.15-11.52-11.52v-49.38c0-6.37,5.15-11.52,11.52-11.52h2.4c.56,0,1.07-.28,1.38-.74l1.83-2.73c.61-.92,1.63-1.47,2.73-1.47h6.35c1.1,0,2.12.54,2.73,1.47l1.83,2.73c.31.46.82.74,1.38.74h69.89c6.37,0,11.52,5.15,11.52,11.52Zm-31.27,25.51c0-14.09-11.42-25.51-25.51-25.51s-25.51,11.42-25.51,25.51,11.42,25.51,25.51,25.51,25.51-11.42,25.51-25.51Zm23.04-25.51c0-1.81-1.48-3.29-3.29-3.29h-11.52c-1.81,0-3.29,1.48-3.29,3.29v4.94c0,1.81,1.48,3.29,3.29,3.29h11.52c1.81,0,3.29-1.48,3.29-3.29v-4.94Zm-48.56,4.94c-11.36,0-20.58,9.21-20.58,20.57s9.22,20.57,20.58,20.57,20.57-9.22,20.57-20.57-9.22-20.57-20.57-20.57Zm0,0c-11.36,0-20.58,9.21-20.58,20.57s9.22,20.57,20.58,20.57,20.57-9.22,20.57-20.57-9.22-20.57-20.57-20.57Z" fill="none" stroke="#fff" stroke-miterlimit="10" stroke-width="3"/></g></svg>