<?xml version="1.0" encoding="UTF-8"?><svg id="a" xmlns="http://www.w3.org/2000/svg" viewBox="0 0 120 120"><g id="e"><rect x="11.7" y="11.7" width="96.6" height="98" fill="none" stroke="#fff" stroke-linecap="round" stroke-linejoin="round" stroke-width="3"/><path d="m18,11.7c0-4.64,18.8-8.4,42-8.4s42,3.76,42,8.4" fill="none" stroke="#fff" stroke-linecap="round" stroke-linejoin="round" stroke-width="3"/><rect x="4.7" y="20.1" width="110.6" height="39.2" fill="none" stroke="#fff" stroke-linecap="round" stroke-linejoin="round" stroke-width="3"/><rect x="4.7" y="69.1" width="110.6" height="22.4" fill="none" stroke="#fff" stroke-linecap="round" stroke-linejoin="round" stroke-width="3"/><rect x="25" y="109.7" width="70" height="7" fill="none" stroke="#fff" stroke-linecap="round" stroke-linejoin="round" stroke-width="3"/><line x1="18" y1="20.1" x2="18" y2="59.3" fill="none" stroke="#fff" stroke-linecap="round" stroke-linejoin="round" stroke-width="3"/><line x1="32" y1="20.1" x2="32" y2="59.3" fill="none" stroke="#fff" stroke-linecap="round" stroke-linejoin="round" stroke-width="3"/><line x1="46" y1="20.1" x2="46" y2="59.3" fill="none" stroke="#fff" stroke-linecap="round" stroke-linejoin="round" stroke-width="3"/><line x1="60" y1="20.1" x2="60" y2="59.3" fill="none" stroke="#fff" stroke-linecap="round" stroke-linejoin="round" stroke-width="3"/><line x1="74" y1="20.1" x2="74" y2="59.3" fill="none" stroke="#fff" stroke-linecap="round" stroke-linejoin="round" stroke-width="3"/><line x1="88" y1="20.1" x2="88" y2="59.3" fill="none" stroke="#fff" stroke-linecap="round" stroke-linejoin="round" stroke-width="3"/><line x1="102" y1="20.1" x2="102" y2="59.3" fill="none" stroke="#fff" stroke-linecap="round" stroke-linejoin="round" stroke-width="3"/><line x1="20.1" y1="69.1" x2="20.1" y2="91.5" fill="none" stroke="#fff" stroke-linecap="round" stroke-linejoin="round" stroke-width="3"/><line x1="29.9" y1="69.1" x2="29.9" y2="91.5" fill="none" stroke="#fff" stroke-linecap="round" stroke-linejoin="round" stroke-width="3"/><line x1="39.7" y1="69.1" x2="39.7" y2="91.5" fill="none" stroke="#fff" stroke-linecap="round" stroke-linejoin="round" stroke-width="3"/><line x1="49.5" y1="69.1" x2="49.5" y2="91.5" fill="none" stroke="#fff" stroke-linecap="round" stroke-linejoin="round" stroke-width="3"/><line x1="59.3" y1="69.1" x2="59.3" y2="91.5" fill="none" stroke="#fff" stroke-linecap="round" stroke-linejoin="round" stroke-width="3"/><line x1="69.1" y1="69.1" x2="69.1" y2="91.5" fill="none" stroke="#fff" stroke-linecap="round" stroke-linejoin="round" stroke-width="3"/><line x1="78.9" y1="69.1" x2="78.9" y2="91.5" fill="none" stroke="#fff" stroke-linecap="round" stroke-linejoin="round" stroke-width="3"/><line x1="88.7" y1="69.1" x2="88.7" y2="91.5" fill="none" stroke="#fff" stroke-linecap="round" stroke-linejoin="round" stroke-width="3"/><line x1="98.5" y1="69.1" x2="98.5" y2="91.5" fill="none" stroke="#fff" stroke-linecap="round" stroke-linejoin="round" stroke-width="3"/><path d="m11.7,58.95v9.8h96.6v-9.8H11.7Zm34.3,8.4h-28v-7h28v7Z" fill="#fff"/><path d="m12.4,90.45v21h96.6v-21H12.4Zm9.8,17.5h-4.2v-14h4.2v14Z" fill="#fff"/><rect x="12.4" y="12.4" width="95.2" height="7" fill="#fff"/></g></svg>