<?xml version="1.0" encoding="UTF-8"?><svg id="a" xmlns="http://www.w3.org/2000/svg" viewBox="0 0 120 120"><g id="l"><path d="m106.85,103.71c6.51-13,10.19-27.67,10.19-43.21s-3.67-30.21-10.19-43.21" fill="none" stroke="#fff" stroke-miterlimit="10" stroke-width="3"/><line x1="113.46" y1="10.1" x2="112.12" y2="10.77" fill="none" stroke="#fff" stroke-linecap="round" stroke-linejoin="round" stroke-width="3"/><line x1="107.62" y1="13.02" x2="16.25" y2="58.7" fill="none" stroke="#fff" stroke-dasharray="0 0 3.02 5.03" stroke-linecap="round" stroke-linejoin="round" stroke-width="3"/><line x1="14" y1="59.83" x2="12.66" y2="60.5" fill="none" stroke="#fff" stroke-linecap="round" stroke-linejoin="round" stroke-width="3"/><line x1="113.46" y1="110.9" x2="112.12" y2="110.23" fill="none" stroke="#fff" stroke-linecap="round" stroke-linejoin="round" stroke-width="3"/><line x1="107.62" y1="107.98" x2="16.25" y2="62.3" fill="none" stroke="#fff" stroke-dasharray="0 0 3.02 5.03" stroke-linecap="round" stroke-linejoin="round" stroke-width="3"/><line x1="14" y1="61.17" x2="12.66" y2="60.5" fill="none" stroke="#fff" stroke-linecap="round" stroke-linejoin="round" stroke-width="3"/><path d="m74.14,31.18c-3.3,9.73-5.09,18.47-5.09,29.32s1.8,19.59,5.09,29.32c3.3-9.73,5.09-18.47,5.09-29.32s-1.8-19.59-5.09-29.32Z" fill="none" stroke="#fff" stroke-linecap="round" stroke-linejoin="round" stroke-width="3"/><ellipse cx="13.31" cy="60.5" rx="11.55" ry="17.85" fill="none" stroke="#fff" stroke-dasharray="0 0 2.92 4.86" stroke-linecap="round" stroke-linejoin="round" stroke-width="3"/><circle cx="13.31" cy="60.5" r="6.3" fill="#fff"/></g></svg>