<?xml version="1.0" encoding="UTF-8"?><svg id="a" xmlns="http://www.w3.org/2000/svg" viewBox="0 0 120 120"><g id="k"><path d="m67.39,21.82H2.51c0-4.21,3.42-7.63,7.63-7.63h11.45v-3.82c0-3.16,2.56-5.73,5.72-5.73h15.27c3.16,0,5.72,2.57,5.72,5.73v3.82h11.45c4.21,0,7.63,3.42,7.63,7.63ZM10.14,115.32h49.61c4.21,0,7.63-3.41,7.63-7.63H2.51c0,4.22,3.42,7.63,7.63,7.63ZM117.53,35.18v16.17c0,1.83-.88,3.55-2.36,4.63l-10.55,12c-5.21,5.92-8.08,13.53-8.08,21.42v4.94c0,3.16-2.56,5.73-5.72,5.73H6.54V29.45h105.27c3.16,0,5.72,2.56,5.72,5.73Z" fill="none" stroke="#fff" stroke-miterlimit="10" stroke-width="3"/><path d="m68.78,35.18h2.59c.86,0,1.57.7,1.57,1.57v4.5c0,.86-.7,1.56-1.56,1.56h-2.6c-.86,0-1.56-.7-1.56-1.56v-4.5c0-.86.7-1.57,1.57-1.57Z" fill="#fff"/><path d="m50.23,35.18h2.59c.86,0,1.57.7,1.57,1.57v4.5c0,.86-.7,1.56-1.56,1.56h-2.6c-.86,0-1.56-.7-1.56-1.56v-4.5c0-.86.7-1.57,1.57-1.57Z" fill="#fff"/><path d="m40.96,35.18h2.59c.86,0,1.57.7,1.57,1.57v4.5c0,.86-.7,1.56-1.56,1.56h-2.6c-.86,0-1.56-.7-1.56-1.56v-4.5c0-.86.7-1.57,1.57-1.57Z" fill="#fff"/><path d="m31.69,35.18h2.59c.86,0,1.57.7,1.57,1.57v4.5c0,.86-.7,1.56-1.56,1.56h-2.6c-.86,0-1.56-.7-1.56-1.56v-4.5c0-.86.7-1.57,1.57-1.57Z" fill="#fff"/><path d="m22.42,35.18h2.59c.86,0,1.57.7,1.57,1.57v4.5c0,.86-.7,1.56-1.56,1.56h-2.6c-.86,0-1.56-.7-1.56-1.56v-4.5c0-.86.7-1.57,1.57-1.57Z" fill="#fff"/><path d="m13.14,35.18h2.59c.86,0,1.57.7,1.57,1.57v4.5c0,.86-.7,1.56-1.56,1.56h-2.6c-.86,0-1.56-.7-1.56-1.56v-4.5c0-.86.7-1.57,1.57-1.57Z" fill="#fff"/><path d="m96.59,35.18h2.59c.86,0,1.57.7,1.57,1.57v4.5c0,.86-.7,1.56-1.56,1.56h-2.6c-.86,0-1.56-.7-1.56-1.56v-4.5c0-.86.7-1.57,1.57-1.57Z" fill="#fff"/><path d="m87.32,35.18h2.59c.86,0,1.57.7,1.57,1.57v4.5c0,.86-.7,1.56-1.56,1.56h-2.6c-.86,0-1.56-.7-1.56-1.56v-4.5c0-.86.7-1.57,1.57-1.57Z" fill="#fff"/><path d="m59.5,35.18h2.59c.86,0,1.57.7,1.57,1.57v4.5c0,.86-.7,1.56-1.56,1.56h-2.6c-.86,0-1.56-.7-1.56-1.56v-4.5c0-.86.7-1.57,1.57-1.57Z" fill="#fff"/><path d="m105.86,35.18h2.59c.86,0,1.57.7,1.57,1.57v4.5c0,.86-.7,1.56-1.56,1.56h-2.6c-.86,0-1.56-.7-1.56-1.56v-4.5c0-.86.7-1.57,1.57-1.57Z" fill="#fff"/><path d="m78.05,35.18h2.59c.86,0,1.57.7,1.57,1.57v4.5c0,.86-.7,1.56-1.56,1.56h-2.6c-.86,0-1.56-.7-1.56-1.56v-4.5c0-.86.7-1.57,1.57-1.57Z" fill="#fff"/><path d="m68.78,86.42h2.59c.86,0,1.57.7,1.57,1.57v4.5c0,.86-.7,1.56-1.56,1.56h-2.6c-.86,0-1.56-.7-1.56-1.56v-4.5c0-.86.7-1.57,1.57-1.57Z" fill="#fff"/><path d="m50.23,86.42h2.59c.86,0,1.57.7,1.57,1.57v4.5c0,.86-.7,1.56-1.56,1.56h-2.6c-.86,0-1.56-.7-1.56-1.56v-4.5c0-.86.7-1.57,1.57-1.57Z" fill="#fff"/><path d="m40.96,86.42h2.59c.86,0,1.57.7,1.57,1.57v4.5c0,.86-.7,1.56-1.56,1.56h-2.6c-.86,0-1.56-.7-1.56-1.56v-4.5c0-.86.7-1.57,1.57-1.57Z" fill="#fff"/><path d="m31.69,86.42h2.59c.86,0,1.57.7,1.57,1.57v4.5c0,.86-.7,1.56-1.56,1.56h-2.6c-.86,0-1.56-.7-1.56-1.56v-4.5c0-.86.7-1.57,1.57-1.57Z" fill="#fff"/><path d="m22.42,86.42h2.59c.86,0,1.57.7,1.57,1.57v4.5c0,.86-.7,1.56-1.56,1.56h-2.6c-.86,0-1.56-.7-1.56-1.56v-4.5c0-.86.7-1.57,1.57-1.57Z" fill="#fff"/><path d="m13.14,86.42h2.59c.86,0,1.57.7,1.57,1.57v4.5c0,.86-.7,1.56-1.56,1.56h-2.6c-.86,0-1.56-.7-1.56-1.56v-4.5c0-.86.7-1.57,1.57-1.57Z" fill="#fff"/><path d="m87.32,86.42h2.59c.86,0,1.57.7,1.57,1.57v4.5c0,.86-.7,1.56-1.56,1.56h-2.6c-.86,0-1.56-.7-1.56-1.56v-4.5c0-.86.7-1.57,1.57-1.57Z" fill="#fff"/><path d="m59.5,86.42h2.59c.86,0,1.57.7,1.57,1.57v4.5c0,.86-.7,1.56-1.56,1.56h-2.6c-.86,0-1.56-.7-1.56-1.56v-4.5c0-.86.7-1.57,1.57-1.57Z" fill="#fff"/><path d="m78.05,86.42h2.59c.86,0,1.57.7,1.57,1.57v4.5c0,.86-.7,1.56-1.56,1.56h-2.6c-.86,0-1.56-.7-1.56-1.56v-4.5c0-.86.7-1.57,1.57-1.57Z" fill="#fff"/><path d="m27.59,50.4v27.67h-6.02v-27.67h6.02Z" fill="#fff"/><path d="m42.66,49.92c1.79,0,3.37.18,4.74.53,1.38.35,2.61.81,3.69,1.36l-1.36,4.48c-1.2-.59-2.36-1.03-3.47-1.34-1.11-.31-2.2-.46-3.25-.46-1.41,0-2.5.28-3.27.83-.78.56-1.16,1.3-1.16,2.24s.34,1.7,1.01,2.2c.67.5,1.76.98,3.25,1.45l2.64.83c2.2.73,3.92,1.77,5.16,3.12,1.24,1.35,1.87,3,1.87,4.96,0,1.17-.22,2.27-.66,3.29-.44,1.03-1.1,1.92-1.98,2.68-.88.76-1.98,1.36-3.29,1.8-1.32.44-2.85.66-4.61.66-3.31,0-6.34-.67-9.09-2.02l1.36-4.48c1.26.61,2.49,1.09,3.69,1.43,1.2.34,2.46.51,3.78.51,1.55,0,2.72-.29,3.51-.86s1.19-1.37,1.19-2.39c0-.35-.07-.7-.2-1.03-.13-.34-.37-.66-.72-.97-.35-.31-.83-.61-1.43-.92-.6-.31-1.38-.61-2.35-.9l-2.33-.79c-1.03-.35-1.96-.76-2.81-1.23-.85-.47-1.57-1.01-2.17-1.63-.6-.61-1.07-1.34-1.41-2.17-.34-.83-.5-1.81-.5-2.92,0-1.2.22-2.31.66-3.32.44-1.01,1.09-1.88,1.95-2.61.86-.73,1.93-1.3,3.21-1.71,1.27-.41,2.73-.62,4.37-.62Z" fill="#fff"/><path d="m69.75,49.92c1.96,0,3.78.32,5.45.97,1.67.64,3.1,1.57,4.3,2.79,1.2,1.22,2.14,2.72,2.83,4.5.69,1.79,1.03,3.82,1.03,6.1s-.35,4.22-1.05,5.97-1.67,3.25-2.9,4.48-2.69,2.17-4.37,2.83c-1.68.66-3.51.99-5.47.99s-3.78-.31-5.45-.94c-1.67-.63-3.1-1.55-4.3-2.77-1.2-1.21-2.15-2.71-2.83-4.48-.69-1.77-1.03-3.8-1.03-6.08s.35-4.22,1.05-6c.7-1.77,1.67-3.28,2.9-4.52,1.23-1.24,2.69-2.2,4.37-2.85,1.68-.66,3.51-.99,5.47-.99Zm-7.42,14.36c0,1.64.2,3.07.59,4.28.4,1.22.93,2.23,1.6,3.03.67.81,1.46,1.41,2.35,1.8.89.4,1.85.59,2.88.59s1.94-.2,2.83-.59c.89-.4,1.66-1,2.31-1.8.64-.81,1.16-1.82,1.54-3.03.38-1.21.57-2.64.57-4.28s-.2-3.16-.59-4.39c-.4-1.23-.93-2.25-1.6-3.05-.67-.81-1.46-1.4-2.35-1.78-.89-.38-1.85-.57-2.88-.57s-1.98.21-2.85.61c-.88.41-1.64,1.02-2.28,1.82-.64.81-1.16,1.82-1.54,3.05-.38,1.23-.57,2.67-.57,4.3Z" fill="#fff"/></g></svg>