<?xml version="1.0" encoding="UTF-8"?><svg id="a" xmlns="http://www.w3.org/2000/svg" viewBox="0 0 120 120"><g id="m"><path d="m63.69,43.66h0l45.97-13.19C99.58,13.56,81.11,2.23,60,2.23c-.18,0-.36.01-.55.01l-11.56,45.65,15.79-4.23Z" fill="none" stroke="#fff" stroke-miterlimit="10" stroke-width="3"/><path d="m47.89,47.89L59.45,2.24c-21.08.2-39.45,11.68-49.38,28.7l33.59,32.74,4.23-15.79Z" fill="none" stroke="#fff" stroke-miterlimit="10" stroke-width="3"/><path d="m71.02,71.02l-11.56,46.74c.18,0,.36.01.55.01,21.45,0,40.16-11.7,50.12-29.06l-34.88-33.49-4.23,15.79Z" fill="none" stroke="#fff" stroke-miterlimit="10" stroke-width="3"/><path d="m43.66,63.69h0L10.08,30.95c-4.98,8.54-7.85,18.46-7.85,29.05s2.69,19.89,7.37,28.24l45.62-12.99-11.56-11.56Z" fill="none" stroke="#fff" stroke-miterlimit="10" stroke-width="3"/><path d="m109.65,30.47l-45.97,13.19,11.56,11.56h0l34.88,33.49c4.86-8.46,7.65-18.26,7.65-28.71s-2.97-20.89-8.12-29.53Z" fill="none" stroke="#fff" stroke-miterlimit="10" stroke-width="3"/><path d="m55.22,75.25h0l-45.62,12.99c9.81,17.47,28.43,29.32,49.85,29.52l11.56-46.74-15.79,4.23Z" fill="none" stroke="#fff" stroke-miterlimit="10" stroke-width="3"/><polyline points="63.69 43.66 63.69 43.66 47.89 47.89" fill="none" stroke="#fff" stroke-miterlimit="10" stroke-width="3"/><line x1="71.02" y1="71.02" x2="75.25" y2="55.22" fill="none" stroke="#fff" stroke-miterlimit="10" stroke-width="3"/></g></svg>